<?xml version="1.0" encoding="UTF-8"?>
<svg xmlns="http://www.w3.org/2000/svg" xmlns:xlink="http://www.w3.org/1999/xlink" width="50pt" height="50pt" viewBox="0 0 50 50" version="1.1">
<g id="surface1">
<path style=" stroke:none;fill-rule:evenodd;fill:rgb(61.960784%,54.901961%,42.352941%);fill-opacity:1;" d="M 25.128906 0 L 24.464844 0.0117188 L 24.527344 3.691406 L 25.1875 3.683594 Z M 21.972656 2.074219 L 21.660156 1.460938 L 21.632812 1.460938 L 21.789062 2.085938 L 22 3.894531 L 21.378906 3.964844 L 20.949219 0.28125 L 21.457031 0.222656 L 22.71875 1.941406 L 23.015625 2.546875 L 23.046875 2.542969 L 22.894531 1.929688 L 22.683594 0.105469 L 23.300781 0.0351562 L 23.730469 3.71875 L 23.222656 3.777344 Z M 27.6875 3.859375 C 27.839844 3.835938 27.96875 3.792969 28.066406 3.722656 L 27.984375 3.15625 C 27.910156 3.195312 27.828125 3.226562 27.738281 3.253906 C 27.648438 3.277344 27.542969 3.285156 27.417969 3.277344 C 27.28125 3.261719 27.164062 3.222656 27.070312 3.148438 C 26.976562 3.078125 26.902344 2.980469 26.847656 2.859375 C 26.792969 2.738281 26.757812 2.597656 26.742188 2.4375 C 26.726562 2.273438 26.726562 2.097656 26.746094 1.90625 C 26.785156 1.457031 26.878906 1.136719 27.027344 0.9375 C 27.171875 0.738281 27.367188 0.652344 27.609375 0.671875 C 27.730469 0.683594 27.835938 0.703125 27.921875 0.730469 C 28.007812 0.757812 28.085938 0.789062 28.148438 0.832031 L 28.332031 0.261719 C 28.253906 0.21875 28.152344 0.179688 28.027344 0.140625 C 27.902344 0.101562 27.753906 0.0742188 27.582031 0.0585938 C 27.417969 0.0429688 27.246094 0.0585938 27.078125 0.101562 C 26.910156 0.148438 26.753906 0.238281 26.613281 0.371094 C 26.472656 0.503906 26.355469 0.6875 26.253906 0.925781 C 26.152344 1.164062 26.085938 1.46875 26.054688 1.839844 C 26.023438 2.195312 26.03125 2.5 26.078125 2.75 C 26.128906 3 26.207031 3.207031 26.3125 3.367188 C 26.421875 3.527344 26.554688 3.648438 26.710938 3.726562 C 26.867188 3.804688 27.042969 3.855469 27.230469 3.871094 C 27.378906 3.882812 27.53125 3.878906 27.6875 3.859375 Z M 29.371094 0.367188 L 31.167969 0.75 L 31.042969 1.34375 L 29.890625 1.101562 L 29.703125 1.984375 L 30.746094 2.207031 L 30.621094 2.804688 L 29.578125 2.582031 L 29.378906 3.507812 L 30.550781 3.757812 L 30.425781 4.355469 L 28.605469 3.96875 Z M 34.609375 2.574219 L 35.410156 2.902344 L 35.640625 2.339844 L 33.421875 1.421875 L 33.191406 1.988281 L 33.996094 2.320312 L 32.828125 5.160156 L 33.441406 5.414062 Z M 36.011719 4.609375 C 35.917969 4.773438 35.839844 4.925781 35.78125 5.074219 C 35.71875 5.222656 35.679688 5.359375 35.664062 5.484375 C 35.648438 5.609375 35.660156 5.722656 35.691406 5.816406 C 35.722656 5.910156 35.789062 5.988281 35.882812 6.042969 C 36.058594 6.144531 36.242188 6.128906 36.433594 6.003906 C 36.625 5.875 36.835938 5.613281 37.0625 5.214844 C 37.152344 5.0625 37.226562 4.910156 37.289062 4.761719 C 37.347656 4.613281 37.386719 4.472656 37.40625 4.347656 C 37.421875 4.222656 37.414062 4.113281 37.382812 4.015625 C 37.351562 3.917969 37.285156 3.839844 37.183594 3.78125 C 36.835938 3.578125 36.441406 3.855469 36.011719 4.609375 Z M 35.410156 4.265625 C 35.71875 3.722656 36.046875 3.363281 36.398438 3.1875 C 36.742188 3.011719 37.109375 3.035156 37.488281 3.253906 C 37.683594 3.367188 37.832031 3.503906 37.929688 3.664062 C 38.027344 3.820312 38.082031 4 38.089844 4.195312 C 38.097656 4.394531 38.066406 4.609375 37.992188 4.839844 C 37.917969 5.070312 37.808594 5.308594 37.664062 5.5625 C 37.351562 6.105469 37.019531 6.460938 36.667969 6.632812 C 36.316406 6.808594 35.953125 6.785156 35.582031 6.570312 C 35.378906 6.457031 35.230469 6.320312 35.136719 6.160156 C 35.039062 6 34.984375 5.824219 34.976562 5.628906 C 34.96875 5.429688 35.003906 5.21875 35.078125 4.988281 C 35.152344 4.757812 35.265625 4.515625 35.410156 4.265625 Z M 41.855469 8 L 41.324219 8.472656 L 40.039062 9.871094 L 40.527344 10.320312 L 43.015625 7.605469 L 42.554688 7.183594 L 40.957031 7.863281 L 40.550781 8.125 L 40.535156 8.109375 L 40.75 7.6875 L 41.261719 5.996094 L 40.792969 5.5625 L 38.308594 8.277344 L 38.765625 8.699219 L 40.054688 7.296875 L 40.460938 6.707031 L 40.484375 6.726562 L 40.195312 7.328125 L 39.785156 8.714844 L 39.949219 8.863281 L 41.265625 8.316406 L 41.835938 7.984375 Z M 43.828125 8.53125 L 44.988281 9.960938 L 44.515625 10.347656 L 43.773438 9.433594 L 43.070312 10.003906 L 43.746094 10.832031 L 43.273438 11.21875 L 42.597656 10.390625 L 41.863281 10.988281 L 42.621094 11.917969 L 42.148438 12.300781 L 40.976562 10.859375 Z M 46.617188 12.417969 L 45.632812 10.863281 L 42.527344 12.835938 L 43.523438 14.40625 L 44.039062 14.082031 L 43.394531 13.066406 L 44.195312 12.5625 L 44.765625 13.460938 L 45.28125 13.136719 L 44.707031 12.234375 L 45.472656 11.75 L 46.101562 12.742188 Z M 47.554688 15.652344 L 47.183594 14.867188 L 44.410156 16.183594 L 44.125 15.582031 L 46.898438 14.265625 L 46.527344 13.476562 L 47.078125 13.214844 L 48.105469 15.390625 Z M 48.808594 17.277344 L 46.828125 18.828125 L 45.507812 19.179688 L 45.675781 19.820312 L 47.003906 19.464844 L 49.484375 19.832031 L 49.304688 19.148438 L 47.839844 19.019531 L 47.429688 19.070312 L 47.421875 19.042969 L 47.796875 18.890625 L 49.007812 18.039062 Z M 47.871094 21.382812 C 47.6875 21.40625 47.519531 21.4375 47.363281 21.480469 C 47.207031 21.519531 47.078125 21.574219 46.96875 21.636719 C 46.859375 21.699219 46.777344 21.773438 46.722656 21.859375 C 46.664062 21.941406 46.644531 22.039062 46.660156 22.148438 C 46.683594 22.351562 46.808594 22.488281 47.023438 22.5625 C 47.242188 22.636719 47.578125 22.644531 48.027344 22.585938 C 48.207031 22.5625 48.371094 22.53125 48.527344 22.488281 C 48.683594 22.449219 48.816406 22.398438 48.925781 22.335938 C 49.035156 22.273438 49.121094 22.199219 49.179688 22.113281 C 49.234375 22.027344 49.257812 21.929688 49.242188 21.8125 C 49.191406 21.414062 48.734375 21.269531 47.871094 21.382812 Z M 47.785156 20.691406 C 48.402344 20.613281 48.886719 20.65625 49.238281 20.828125 C 49.585938 20.996094 49.789062 21.300781 49.847656 21.734375 C 49.875 21.960938 49.855469 22.160156 49.789062 22.335938 C 49.722656 22.511719 49.613281 22.660156 49.460938 22.789062 C 49.308594 22.914062 49.121094 23.015625 48.894531 23.097656 C 48.664062 23.179688 48.40625 23.238281 48.117188 23.273438 C 47.5 23.355469 47.015625 23.308594 46.664062 23.132812 C 46.3125 22.957031 46.109375 22.65625 46.054688 22.226562 C 46.023438 22 46.042969 21.796875 46.109375 21.625 C 46.179688 21.449219 46.289062 21.300781 46.4375 21.175781 C 46.589844 21.050781 46.78125 20.945312 47.007812 20.867188 C 47.238281 20.789062 47.496094 20.730469 47.785156 20.691406 Z M 49.964844 26.4375 L 49.972656 25.808594 L 47.613281 25.773438 C 47.339844 25.765625 47.144531 25.726562 47.027344 25.652344 C 46.90625 25.574219 46.847656 25.453125 46.851562 25.28125 C 46.851562 25.101562 46.914062 24.976562 47.027344 24.898438 C 47.140625 24.824219 47.34375 24.789062 47.632812 24.792969 L 49.988281 24.832031 L 50 24.167969 L 47.527344 24.128906 C 47.097656 24.121094 46.777344 24.210938 46.566406 24.394531 C 46.355469 24.578125 46.246094 24.871094 46.242188 25.277344 C 46.234375 25.621094 46.335938 25.890625 46.546875 26.089844 C 46.757812 26.285156 47.101562 26.390625 47.578125 26.398438 Z M 46.347656 33.882812 L 47.035156 33.921875 L 47.046875 33.894531 L 46.429688 33.71875 L 44.765625 32.992188 L 45.015625 32.417969 L 48.410156 33.898438 L 48.207031 34.367188 L 46.085938 34.597656 L 45.414062 34.550781 L 45.402344 34.578125 L 46.007812 34.753906 L 47.691406 35.484375 L 47.441406 36.058594 L 44.042969 34.578125 L 44.25 34.109375 Z M 46.539062 37.671875 L 46.867188 37.097656 L 43.675781 35.269531 L 43.347656 35.84375 Z M 41.855469 38.320312 C 41.84375 38.203125 41.871094 38.070312 41.929688 37.925781 C 41.988281 37.78125 42.0625 37.648438 42.148438 37.523438 C 42.257812 37.371094 42.386719 37.246094 42.535156 37.148438 C 42.683594 37.054688 42.851562 37 43.046875 36.988281 C 43.238281 36.976562 43.457031 37.011719 43.699219 37.097656 C 43.9375 37.179688 44.203125 37.328125 44.496094 37.535156 C 44.796875 37.75 45.027344 37.960938 45.179688 38.167969 C 45.335938 38.375 45.433594 38.570312 45.476562 38.761719 C 45.523438 38.949219 45.523438 39.128906 45.476562 39.296875 C 45.429688 39.464844 45.355469 39.617188 45.257812 39.757812 C 45.160156 39.894531 45.0625 40.011719 44.964844 40.097656 C 44.867188 40.1875 44.78125 40.253906 44.707031 40.296875 L 44.304688 39.851562 C 44.375 39.820312 44.441406 39.769531 44.507812 39.710938 C 44.574219 39.648438 44.644531 39.566406 44.714844 39.46875 C 44.855469 39.269531 44.878906 39.058594 44.78125 38.828125 C 44.683594 38.601562 44.453125 38.359375 44.089844 38.097656 C 43.933594 37.984375 43.78125 37.894531 43.632812 37.828125 C 43.484375 37.761719 43.347656 37.71875 43.214844 37.703125 C 43.082031 37.691406 42.960938 37.707031 42.851562 37.75 C 42.742188 37.796875 42.648438 37.875 42.566406 37.988281 C 42.496094 38.089844 42.449219 38.183594 42.425781 38.277344 C 42.402344 38.367188 42.386719 38.453125 42.386719 38.539062 Z M 42.855469 42.503906 L 44.09375 41.140625 L 41.375 38.664062 L 40.121094 40.042969 L 40.574219 40.453125 L 41.378906 39.566406 L 42.078125 40.203125 L 41.359375 40.992188 L 41.8125 41.402344 L 42.53125 40.613281 L 43.199219 41.222656 L 42.40625 42.09375 Z M 38.863281 45.09375 L 39.550781 44.566406 L 37.683594 42.125 L 38.210938 41.722656 L 40.074219 44.160156 L 40.769531 43.632812 L 41.140625 44.117188 L 39.234375 45.578125 Z M 36.804688 44.320312 C 36.902344 44.445312 37 44.589844 37.09375 44.753906 C 37.527344 45.503906 37.570312 45.984375 37.21875 46.183594 C 37.121094 46.242188 37.019531 46.261719 36.917969 46.238281 C 36.816406 46.21875 36.71875 46.171875 36.617188 46.09375 C 36.519531 46.015625 36.417969 45.910156 36.320312 45.785156 C 36.222656 45.65625 36.128906 45.515625 36.039062 45.359375 C 35.8125 44.964844 35.691406 44.652344 35.675781 44.421875 C 35.660156 44.191406 35.742188 44.027344 35.917969 43.925781 C 36.015625 43.867188 36.113281 43.851562 36.210938 43.871094 C 36.308594 43.890625 36.410156 43.9375 36.507812 44.015625 C 36.609375 44.089844 36.707031 44.191406 36.804688 44.320312 Z M 38.125 45.800781 C 38.148438 45.410156 38.003906 44.945312 37.691406 44.40625 C 37.546875 44.152344 37.394531 43.9375 37.234375 43.757812 C 37.074219 43.574219 36.90625 43.4375 36.730469 43.347656 C 36.558594 43.257812 36.378906 43.210938 36.191406 43.214844 C 36.007812 43.21875 35.8125 43.28125 35.613281 43.394531 C 35.238281 43.609375 35.039062 43.914062 35.011719 44.308594 C 34.984375 44.699219 35.128906 45.164062 35.441406 45.707031 C 35.585938 45.957031 35.738281 46.175781 35.902344 46.355469 C 36.0625 46.535156 36.230469 46.667969 36.40625 46.761719 C 36.578125 46.851562 36.761719 46.894531 36.949219 46.890625 C 37.136719 46.886719 37.328125 46.828125 37.523438 46.710938 C 37.902344 46.492188 38.105469 46.191406 38.125 45.800781 Z M 31.09375 47.410156 L 31.230469 48.105469 L 31.257812 48.097656 L 31.257812 47.4375 L 31.445312 46.023438 L 31.65625 45.960938 L 32.648438 47.011719 L 33.023438 47.5625 L 33.050781 47.550781 L 32.746094 46.902344 L 32.183594 45.085938 L 32.78125 44.898438 L 33.871094 48.417969 L 33.261719 48.605469 L 32.058594 47.308594 L 31.800781 46.910156 L 31.78125 46.917969 L 31.804688 47.398438 L 31.585938 49.125 L 30.988281 49.3125 L 29.898438 45.792969 L 30.53125 45.597656 Z M 27.957031 49.828125 L 29.773438 49.546875 L 29.207031 45.910156 L 27.371094 46.195312 L 27.464844 46.796875 L 28.648438 46.613281 L 28.792969 47.546875 L 27.742188 47.710938 L 27.832031 48.316406 L 28.886719 48.152344 L 29.027344 49.046875 L 27.863281 49.226562 Z M 26.863281 49.929688 L 25.027344 50 L 25.003906 49.390625 L 26.179688 49.347656 L 26.144531 48.441406 L 25.078125 48.480469 L 25.058594 47.871094 L 26.121094 47.832031 L 26.085938 46.886719 L 24.890625 46.929688 L 24.867188 46.320312 L 26.726562 46.25 Z M 21.761719 49.183594 L 22.625 49.257812 L 22.882812 46.195312 L 23.542969 46.25 L 23.28125 49.3125 L 24.152344 49.386719 L 24.101562 49.992188 L 21.707031 49.792969 Z M 19.734375 49.453125 L 19.386719 46.960938 L 19.746094 45.640625 L 19.109375 45.464844 L 18.746094 46.792969 L 17.183594 48.757812 L 17.867188 48.945312 L 18.710938 47.742188 L 18.875 47.359375 L 18.902344 47.367188 L 18.847656 47.765625 L 18.972656 49.246094 Z M 16.65625 46.582031 C 16.726562 46.414062 16.78125 46.25 16.824219 46.09375 C 16.867188 45.9375 16.890625 45.796875 16.886719 45.671875 C 16.886719 45.546875 16.867188 45.4375 16.820312 45.347656 C 16.777344 45.257812 16.703125 45.191406 16.601562 45.144531 C 16.414062 45.066406 16.234375 45.105469 16.058594 45.253906 C 15.886719 45.40625 15.710938 45.691406 15.535156 46.113281 C 15.464844 46.277344 15.410156 46.4375 15.367188 46.59375 C 15.324219 46.75 15.304688 46.890625 15.300781 47.015625 C 15.300781 47.144531 15.320312 47.253906 15.367188 47.347656 C 15.410156 47.4375 15.488281 47.507812 15.59375 47.550781 C 15.964844 47.707031 16.320312 47.386719 16.65625 46.582031 Z M 17.292969 46.851562 C 17.054688 47.425781 16.769531 47.824219 16.449219 48.042969 C 16.125 48.261719 15.761719 48.285156 15.359375 48.117188 C 15.148438 48.027344 14.984375 47.910156 14.867188 47.765625 C 14.75 47.617188 14.675781 47.449219 14.640625 47.253906 C 14.609375 47.058594 14.617188 46.84375 14.660156 46.605469 C 14.703125 46.367188 14.78125 46.113281 14.894531 45.84375 C 15.136719 45.269531 15.421875 44.875 15.75 44.65625 C 16.078125 44.441406 16.441406 44.417969 16.835938 44.582031 C 17.050781 44.671875 17.214844 44.789062 17.332031 44.9375 C 17.445312 45.082031 17.519531 45.25 17.550781 45.445312 C 17.585938 45.640625 17.578125 45.855469 17.53125 46.09375 C 17.484375 46.332031 17.40625 46.582031 17.292969 46.851562 Z M 11.242188 45.855469 L 11.78125 46.179688 L 12.992188 44.152344 C 13.132812 43.917969 13.265625 43.769531 13.390625 43.703125 C 13.515625 43.636719 13.652344 43.648438 13.800781 43.734375 C 13.953125 43.828125 14.035156 43.941406 14.039062 44.078125 C 14.046875 44.21875 13.976562 44.410156 13.832031 44.65625 L 12.617188 46.683594 L 13.183594 47.023438 L 14.457031 44.898438 C 14.675781 44.53125 14.761719 44.210938 14.707031 43.933594 C 14.652344 43.660156 14.453125 43.417969 14.109375 43.210938 C 13.8125 43.035156 13.527344 42.984375 13.25 43.070312 C 12.976562 43.152344 12.714844 43.398438 12.46875 43.808594 Z M 6.636719 38.972656 L 6.261719 39.550781 L 6.277344 39.574219 L 6.738281 39.128906 L 8.203125 38.050781 L 8.574219 38.554688 L 5.589844 40.75 L 5.289062 40.339844 L 6.152344 38.390625 L 6.53125 37.832031 L 6.511719 37.804688 L 6.058594 38.246094 L 4.582031 39.332031 L 4.210938 38.828125 L 7.195312 36.632812 L 7.496094 37.042969 Z M 3.265625 37.238281 L 3.601562 37.8125 L 6.78125 35.960938 L 6.449219 35.386719 Z M 5.054688 32.851562 C 5.164062 32.902344 5.265625 32.992188 5.359375 33.113281 C 5.453125 33.238281 5.53125 33.371094 5.59375 33.507812 C 5.671875 33.679688 5.71875 33.855469 5.726562 34.027344 C 5.734375 34.203125 5.695312 34.378906 5.609375 34.554688 C 5.523438 34.726562 5.382812 34.898438 5.1875 35.0625 C 4.996094 35.230469 4.734375 35.386719 4.410156 35.535156 C 4.070312 35.6875 3.773438 35.78125 3.519531 35.808594 C 3.261719 35.839844 3.042969 35.828125 2.859375 35.769531 C 2.671875 35.714844 2.519531 35.625 2.394531 35.496094 C 2.273438 35.371094 2.179688 35.234375 2.109375 35.078125 C 2.035156 34.921875 1.988281 34.78125 1.960938 34.652344 C 1.933594 34.523438 1.917969 34.417969 1.917969 34.328125 L 2.503906 34.207031 C 2.496094 34.28125 2.503906 34.363281 2.523438 34.453125 C 2.542969 34.542969 2.578125 34.644531 2.628906 34.753906 C 2.730469 34.976562 2.902344 35.101562 3.148438 35.132812 C 3.394531 35.164062 3.71875 35.085938 4.128906 34.898438 C 4.300781 34.820312 4.457031 34.734375 4.589844 34.640625 C 4.722656 34.546875 4.828125 34.445312 4.90625 34.339844 C 4.984375 34.230469 5.03125 34.121094 5.046875 34.003906 C 5.0625 33.886719 5.042969 33.761719 4.984375 33.636719 C 4.933594 33.523438 4.875 33.433594 4.808594 33.367188 C 4.742188 33.304688 4.671875 33.246094 4.601562 33.203125 Z M 0.941406 31.609375 L 1.492188 33.367188 L 5 32.261719 L 4.441406 30.484375 L 3.859375 30.667969 L 4.21875 31.8125 L 3.316406 32.097656 L 2.996094 31.078125 L 2.417969 31.261719 L 2.738281 32.28125 L 1.875 32.550781 L 1.519531 31.425781 Z M 0.722656 26.855469 L 0.832031 27.714844 L 3.875 27.332031 L 3.957031 27.992188 L 0.914062 28.371094 L 1.019531 29.238281 L 0.417969 29.316406 L 0.117188 26.929688 Z M 2.421875 25.453125 C 2.261719 25.472656 2.089844 25.480469 1.902344 25.476562 C 1.035156 25.460938 0.601562 25.253906 0.609375 24.851562 C 0.613281 24.734375 0.648438 24.636719 0.71875 24.5625 C 0.785156 24.488281 0.878906 24.425781 1 24.378906 C 1.117188 24.335938 1.253906 24.304688 1.414062 24.285156 C 1.574219 24.265625 1.742188 24.257812 1.921875 24.261719 C 2.378906 24.269531 2.707031 24.324219 2.914062 24.429688 C 3.117188 24.535156 3.21875 24.6875 3.214844 24.890625 C 3.214844 25.003906 3.179688 25.097656 3.109375 25.171875 C 3.042969 25.246094 2.949219 25.308594 2.835938 25.355469 C 2.71875 25.402344 2.582031 25.433594 2.421875 25.453125 Z M 0.472656 25.828125 C 0.796875 26.046875 1.269531 26.160156 1.890625 26.171875 C 2.183594 26.175781 2.445312 26.15625 2.683594 26.109375 C 2.921875 26.0625 3.121094 25.992188 3.289062 25.886719 C 3.460938 25.785156 3.589844 25.652344 3.679688 25.492188 C 3.773438 25.332031 3.820312 25.132812 3.824219 24.902344 C 3.832031 24.472656 3.675781 24.144531 3.351562 23.917969 C 3.03125 23.695312 2.558594 23.578125 1.933594 23.566406 C 1.644531 23.5625 1.378906 23.582031 1.140625 23.628906 C 0.90625 23.675781 0.703125 23.75 0.535156 23.855469 C 0.367188 23.957031 0.234375 24.089844 0.144531 24.253906 C 0.0507812 24.417969 0.00390625 24.613281 0 24.839844 C -0.0078125 25.277344 0.152344 25.609375 0.472656 25.828125 Z M 1.960938 18.726562 L 2.628906 18.953125 L 4.480469 19.378906 L 4.628906 18.734375 L 1.042969 17.910156 L 0.902344 18.519531 L 2.285156 19.578125 L 2.710938 19.800781 L 2.707031 19.820312 L 2.234375 19.839844 L 0.511719 20.234375 L 0.367188 20.851562 L 3.953125 21.675781 L 4.09375 21.066406 L 2.238281 20.640625 L 1.523438 20.578125 L 1.53125 20.546875 L 2.195312 20.5 L 3.601562 20.171875 L 3.652344 19.957031 L 2.527344 19.082031 L 1.957031 18.75 Z M 1.449219 16.742188 L 2.117188 15.027344 L 2.6875 15.25 L 2.257812 16.347656 L 3.101562 16.675781 L 3.488281 15.679688 L 4.054688 15.902344 L 3.667969 16.898438 L 4.546875 17.242188 L 4.984375 16.125 L 5.550781 16.347656 L 4.875 18.082031 Z M 3.449219 12.402344 L 2.582031 14.027344 L 5.824219 15.761719 L 6.703125 14.117188 L 6.164062 13.832031 L 5.601562 14.890625 L 4.765625 14.441406 L 5.269531 13.5 L 4.730469 13.214844 L 4.226562 14.15625 L 3.429688 13.730469 L 3.984375 12.691406 Z M 5.796875 9.992188 L 5.300781 10.703125 L 7.808594 12.472656 L 7.425781 13.011719 L 4.917969 11.246094 L 4.417969 11.957031 L 3.917969 11.609375 L 5.300781 9.640625 Z M 6.585938 8.105469 L 8.910156 9.0625 L 9.871094 10.039062 L 10.339844 9.574219 L 9.378906 8.59375 L 8.46875 6.25 L 7.964844 6.75 L 8.578125 8.085938 L 8.824219 8.417969 L 8.804688 8.4375 L 8.488281 8.1875 L 7.148438 7.554688 Z M 10.617188 6.882812 C 10.726562 7.03125 10.839844 7.164062 10.953125 7.277344 C 11.066406 7.394531 11.175781 7.480469 11.285156 7.542969 C 11.394531 7.609375 11.5 7.644531 11.597656 7.652344 C 11.699219 7.65625 11.792969 7.628906 11.882812 7.5625 C 12.046875 7.4375 12.105469 7.261719 12.0625 7.035156 C 12.015625 6.808594 11.859375 6.515625 11.582031 6.152344 C 11.476562 6.007812 11.363281 5.878906 11.253906 5.765625 C 11.140625 5.652344 11.027344 5.5625 10.921875 5.496094 C 10.8125 5.429688 10.707031 5.394531 10.605469 5.386719 C 10.5 5.378906 10.402344 5.410156 10.3125 5.480469 C 9.992188 5.722656 10.089844 6.191406 10.617188 6.882812 Z M 10.0625 7.304688 C 9.6875 6.804688 9.484375 6.363281 9.460938 5.972656 C 9.433594 5.582031 9.59375 5.257812 9.945312 4.992188 C 10.125 4.855469 10.308594 4.773438 10.496094 4.742188 C 10.679688 4.714844 10.863281 4.738281 11.046875 4.804688 C 11.230469 4.875 11.414062 4.988281 11.597656 5.148438 C 11.78125 5.304688 11.960938 5.5 12.136719 5.734375 C 12.511719 6.230469 12.710938 6.675781 12.734375 7.070312 C 12.753906 7.460938 12.59375 7.785156 12.25 8.046875 C 12.066406 8.1875 11.882812 8.269531 11.699219 8.296875 C 11.515625 8.324219 11.332031 8.304688 11.144531 8.234375 C 10.960938 8.164062 10.78125 8.050781 10.597656 7.890625 C 10.414062 7.730469 10.238281 7.535156 10.0625 7.304688 Z M 13.957031 2.5625 L 13.410156 2.867188 L 14.550781 4.933594 C 14.683594 5.171875 14.746094 5.363281 14.738281 5.503906 C 14.734375 5.648438 14.65625 5.761719 14.507812 5.84375 C 14.351562 5.929688 14.210938 5.941406 14.085938 5.878906 C 13.964844 5.816406 13.835938 5.660156 13.695312 5.40625 L 12.554688 3.339844 L 11.972656 3.660156 L 13.171875 5.828125 C 13.378906 6.203125 13.613281 6.4375 13.878906 6.53125 C 14.144531 6.621094 14.453125 6.570312 14.804688 6.375 C 15.105469 6.207031 15.289062 5.984375 15.355469 5.703125 C 15.421875 5.421875 15.339844 5.070312 15.109375 4.65625 Z M 13.957031 2.5625 "/>
</g>
</svg>
